<?xml version="1.0" encoding="utf-8"?>
<!-- Generator: Adobe Illustrator 16.0.0, SVG Export Plug-In . SVG Version: 6.00 Build 0)  -->
<!DOCTYPE svg PUBLIC "-//W3C//DTD SVG 1.1//EN" "http://www.w3.org/Graphics/SVG/1.1/DTD/svg11.dtd">
<svg version="1.1" id="Layer_1" xmlns="http://www.w3.org/2000/svg" xmlns:xlink="http://www.w3.org/1999/xlink" x="0px" y="0px"
	 width="72.499px" height="15.083px" viewBox="0 0 72.499 15.083" enable-background="new 0 0 72.499 15.083" xml:space="preserve">
<g>
	<g>
		<polygon fill="#5D3C9C" points="15,15.083 0,15.083 0,0 9.27,0 9.27,1.951 1.951,1.951 1.951,13.133 13.05,13.133 13.05,8.063 
			15,8.063 		"/>
		<polygon fill="#00B600" points="7.662,10.209 3.884,6.346 5.279,4.982 7.675,7.433 13.618,1.472 15,2.849 		"/>
	</g>
	<g>
		<path fill="#666666" d="M29.349,12.145h-1.887l-0.75-1.951h-3.434l-0.709,1.951h-1.84l3.346-8.59h1.834L29.349,12.145z
			 M26.155,8.747l-1.184-3.188l-1.16,3.188H26.155z"/>
		<path fill="#666666" d="M31.522,12.145l-2.508-6.223h1.729l1.172,3.176l0.34,1.061c0.09-0.27,0.146-0.447,0.17-0.533
			c0.055-0.176,0.113-0.352,0.176-0.527l1.184-3.176h1.693l-2.473,6.223H31.522z"/>
		<path fill="#666666" d="M37.716,7.821l-1.494-0.27c0.168-0.602,0.457-1.047,0.867-1.336s1.02-0.434,1.828-0.434
			c0.734,0,1.281,0.087,1.641,0.261s0.612,0.395,0.759,0.662s0.22,0.759,0.22,1.474L41.519,10.1c0,0.547,0.026,0.95,0.079,1.21
			s0.151,0.538,0.296,0.835h-1.629c-0.043-0.109-0.096-0.271-0.158-0.486c-0.027-0.098-0.047-0.162-0.059-0.193
			c-0.281,0.273-0.582,0.479-0.902,0.615s-0.662,0.205-1.025,0.205c-0.641,0-1.146-0.174-1.515-0.521s-0.554-0.787-0.554-1.318
			c0-0.352,0.084-0.665,0.252-0.94s0.403-0.486,0.706-0.633s0.739-0.274,1.31-0.384c0.77-0.145,1.303-0.279,1.6-0.404V7.92
			c0-0.316-0.078-0.542-0.234-0.677S39.233,7.042,38.8,7.042c-0.293,0-0.521,0.058-0.686,0.173S37.817,7.532,37.716,7.821z
			 M39.919,9.157c-0.211,0.07-0.545,0.154-1.002,0.252s-0.756,0.193-0.896,0.287c-0.215,0.152-0.322,0.346-0.322,0.58
			c0,0.23,0.086,0.43,0.258,0.598s0.391,0.252,0.656,0.252c0.297,0,0.58-0.098,0.85-0.293c0.199-0.148,0.33-0.33,0.393-0.545
			c0.043-0.141,0.064-0.408,0.064-0.803V9.157z"/>
		<path fill="#666666" d="M43.159,5.079V3.555h1.646v1.523H43.159z M43.159,12.145V5.922h1.646v6.223H43.159z"/>
		<path fill="#666666" d="M46.493,12.145v-8.59h1.646v8.59H46.493z"/>
		<path fill="#666666" d="M51.058,7.821l-1.494-0.27c0.168-0.602,0.457-1.047,0.867-1.336s1.02-0.434,1.828-0.434
			c0.734,0,1.281,0.087,1.641,0.261s0.612,0.395,0.759,0.662s0.22,0.759,0.22,1.474L54.86,10.1c0,0.547,0.026,0.95,0.079,1.21
			s0.151,0.538,0.296,0.835h-1.629c-0.043-0.109-0.096-0.271-0.158-0.486c-0.027-0.098-0.047-0.162-0.059-0.193
			c-0.281,0.273-0.582,0.479-0.902,0.615s-0.662,0.205-1.025,0.205c-0.641,0-1.146-0.174-1.515-0.521s-0.554-0.787-0.554-1.318
			c0-0.352,0.084-0.665,0.252-0.94s0.403-0.486,0.706-0.633s0.739-0.274,1.31-0.384c0.77-0.145,1.303-0.279,1.6-0.404V7.92
			c0-0.316-0.078-0.542-0.234-0.677s-0.451-0.202-0.885-0.202c-0.293,0-0.521,0.058-0.686,0.173S51.159,7.532,51.058,7.821z
			 M53.261,9.157c-0.211,0.07-0.545,0.154-1.002,0.252s-0.756,0.193-0.896,0.287c-0.215,0.152-0.322,0.346-0.322,0.58
			c0,0.23,0.086,0.43,0.258,0.598s0.391,0.252,0.656,0.252c0.297,0,0.58-0.098,0.85-0.293c0.199-0.148,0.33-0.33,0.393-0.545
			c0.043-0.141,0.064-0.408,0.064-0.803V9.157z"/>
		<path fill="#666666" d="M56.431,12.145v-8.59h1.646v3.094c0.508-0.578,1.109-0.867,1.805-0.867c0.758,0,1.385,0.274,1.881,0.823
			s0.744,1.337,0.744,2.364c0,1.063-0.253,1.881-0.759,2.455s-1.12,0.861-1.843,0.861c-0.355,0-0.706-0.089-1.052-0.267
			s-0.644-0.44-0.894-0.788v0.914H56.431z M58.065,8.899c0,0.645,0.102,1.121,0.305,1.43c0.285,0.438,0.664,0.656,1.137,0.656
			c0.363,0,0.673-0.155,0.929-0.466s0.384-0.8,0.384-1.468c0-0.711-0.129-1.224-0.387-1.538s-0.588-0.472-0.99-0.472
			c-0.395,0-0.723,0.153-0.984,0.46S58.065,8.274,58.065,8.899z"/>
		<path fill="#666666" d="M63.831,12.145v-8.59h1.646v8.59H63.831z"/>
		<path fill="#666666" d="M70.769,10.165l1.641,0.275c-0.211,0.602-0.544,1.06-0.999,1.374s-1.024,0.472-1.708,0.472
			c-1.082,0-1.883-0.354-2.402-1.061c-0.41-0.566-0.615-1.281-0.615-2.145c0-1.031,0.27-1.839,0.809-2.423s1.221-0.876,2.045-0.876
			c0.926,0,1.656,0.306,2.191,0.917s0.791,1.548,0.768,2.81h-4.125c0.012,0.488,0.145,0.868,0.398,1.14s0.57,0.407,0.949,0.407
			c0.258,0,0.475-0.07,0.65-0.211S70.679,10.477,70.769,10.165z M70.862,8.5c-0.012-0.477-0.135-0.839-0.369-1.087
			s-0.52-0.372-0.855-0.372c-0.359,0-0.656,0.131-0.891,0.393s-0.35,0.617-0.346,1.066H70.862z"/>
	</g>
</g>
</svg>
