<?xml version="1.0" encoding="utf-8"?>
<!-- Generator: Adobe Illustrator 16.0.0, SVG Export Plug-In . SVG Version: 6.00 Build 0)  -->
<!DOCTYPE svg PUBLIC "-//W3C//DTD SVG 1.1//EN" "http://www.w3.org/Graphics/SVG/1.1/DTD/svg11.dtd">
<svg version="1.1" id="Layer_1" xmlns="http://www.w3.org/2000/svg" xmlns:xlink="http://www.w3.org/1999/xlink" x="0px" y="0px"
	 width="577.727px" height="385.152px" viewBox="0 0 577.727 385.152" enable-background="new 0 0 577.727 385.152"
	 xml:space="preserve">
<g>
	<g>
		<g>
			<g>
				<linearGradient id="SVGID_1_" gradientUnits="userSpaceOnUse" x1="0" y1="192.5757" x2="577.7266" y2="192.5757">
					<stop  offset="0" style="stop-color:#7C0EFF"/>
					<stop  offset="1" style="stop-color:#AE8FF6"/>
				</linearGradient>
				<rect fill="url(#SVGID_1_)" width="577.727" height="385.152"/>
			</g>
		</g>
	</g>
	<g opacity="0.4">
		<g>
			<g>
				<rect fill="#5E2599" width="577.727" height="385.152"/>
			</g>
		</g>
	</g>
	<path opacity="0.2" fill="#5E2599" d="M0,162.716V0h223.897c-4.521,21.14,1.92,44.691-1.599,66.275
		c-2.003,12.289-6.516,24.162-13.84,34.279c-7.167,9.899-16.837,17.75-27.757,23.178c-29.222,14.526-62.876,10.48-94.375,10.509
		c-16.893,0.016-34.012,1.251-50.049,6.945c-13.202,4.687-25.405,12.013-35.942,21.223C0.221,162.509,0.114,162.616,0,162.716z
		 M519.704,204.694c-15.539,11.526-32.64,20.284-50.253,28.165c-16.339,7.311-33.059,13.901-48.584,22.885
		c-13.136,7.601-25.421,16.738-35.846,27.808c-10.596,11.25-19.034,24.353-25.166,38.525c-7.826,18.086-12.303,37.598-21.937,54.904
		c-1.563,2.808-3.246,5.526-5.028,8.171h244.836V141.539C562.616,166.015,542.854,187.522,519.704,204.694z"/>
	<g>
		<path fill="#FFFFFF" d="M34.292,370.887c0,0.337-0.273,0.61-0.609,0.61c-0.337,0-0.61-0.273-0.61-0.61s0.273-0.609,0.61-0.609
			C34.019,370.278,34.292,370.55,34.292,370.887z M33.682,359.912c-0.337,0-0.61,0.272-0.61,0.609s0.273,0.61,0.61,0.61
			c0.336,0,0.609-0.273,0.609-0.61S34.019,359.912,33.682,359.912z M33.682,349.545c-0.337,0-0.61,0.272-0.61,0.609
			s0.273,0.61,0.61,0.61c0.336,0,0.609-0.273,0.609-0.61S34.019,349.545,33.682,349.545z M33.682,339.179
			c-0.337,0-0.61,0.273-0.61,0.609c0,0.337,0.273,0.61,0.61,0.61c0.336,0,0.609-0.273,0.609-0.61
			C34.292,339.453,34.019,339.179,33.682,339.179z M33.682,328.813c-0.337,0-0.61,0.273-0.61,0.61c0,0.336,0.273,0.609,0.61,0.609
			c0.336,0,0.609-0.273,0.609-0.609C34.292,329.086,34.019,328.813,33.682,328.813z M33.682,318.447c-0.337,0-0.61,0.273-0.61,0.61
			s0.273,0.609,0.61,0.609c0.336,0,0.609-0.272,0.609-0.609S34.019,318.447,33.682,318.447z M33.682,308.081
			c-0.337,0-0.61,0.273-0.61,0.61s0.273,0.609,0.61,0.609c0.336,0,0.609-0.272,0.609-0.609S34.019,308.081,33.682,308.081z
			 M33.682,297.715c-0.337,0-0.61,0.272-0.61,0.609s0.273,0.609,0.61,0.609c0.336,0,0.609-0.272,0.609-0.609
			S34.019,297.715,33.682,297.715z M23.721,370.278c-0.337,0-0.61,0.272-0.61,0.609s0.273,0.61,0.61,0.61
			c0.336,0,0.609-0.273,0.609-0.61S24.058,370.278,23.721,370.278z M23.721,359.912c-0.337,0-0.61,0.272-0.61,0.609
			s0.273,0.61,0.61,0.61c0.336,0,0.609-0.273,0.609-0.61S24.058,359.912,23.721,359.912z M23.721,349.545
			c-0.337,0-0.61,0.272-0.61,0.609s0.273,0.61,0.61,0.61c0.336,0,0.609-0.273,0.609-0.61S24.058,349.545,23.721,349.545z
			 M23.721,339.179c-0.337,0-0.61,0.273-0.61,0.609c0,0.337,0.273,0.61,0.61,0.61c0.336,0,0.609-0.273,0.609-0.61
			C24.331,339.453,24.058,339.179,23.721,339.179z M23.721,328.813c-0.337,0-0.61,0.273-0.61,0.61c0,0.336,0.273,0.609,0.61,0.609
			c0.336,0,0.609-0.273,0.609-0.609C24.331,329.086,24.058,328.813,23.721,328.813z M23.721,318.447c-0.337,0-0.61,0.273-0.61,0.61
			s0.273,0.609,0.61,0.609c0.336,0,0.609-0.272,0.609-0.609S24.058,318.447,23.721,318.447z M23.721,308.081
			c-0.337,0-0.61,0.273-0.61,0.61s0.273,0.609,0.61,0.609c0.336,0,0.609-0.272,0.609-0.609S24.058,308.081,23.721,308.081z
			 M23.721,297.715c-0.337,0-0.61,0.272-0.61,0.609s0.273,0.609,0.61,0.609c0.336,0,0.609-0.272,0.609-0.609
			S24.058,297.715,23.721,297.715z M23.721,287.349c-0.337,0-0.61,0.272-0.61,0.609s0.273,0.61,0.61,0.61
			c0.336,0,0.609-0.273,0.609-0.61S24.058,287.349,23.721,287.349z M13.76,370.278c-0.336,0-0.609,0.272-0.609,0.609
			s0.273,0.61,0.609,0.61c0.337,0,0.61-0.273,0.61-0.61S14.097,370.278,13.76,370.278z M13.76,359.912
			c-0.336,0-0.609,0.272-0.609,0.609s0.273,0.61,0.609,0.61c0.337,0,0.61-0.273,0.61-0.61S14.097,359.912,13.76,359.912z
			 M13.76,349.545c-0.336,0-0.609,0.272-0.609,0.609s0.273,0.61,0.609,0.61c0.337,0,0.61-0.273,0.61-0.61
			S14.097,349.545,13.76,349.545z M13.76,339.179c-0.336,0-0.609,0.273-0.609,0.609c0,0.337,0.273,0.61,0.609,0.61
			c0.337,0,0.61-0.273,0.61-0.61C14.37,339.453,14.097,339.179,13.76,339.179z M13.76,328.813c-0.336,0-0.609,0.273-0.609,0.61
			c0,0.336,0.273,0.609,0.609,0.609c0.337,0,0.61-0.273,0.61-0.609C14.37,329.086,14.097,328.813,13.76,328.813z M13.76,318.447
			c-0.336,0-0.609,0.273-0.609,0.61s0.273,0.609,0.609,0.609c0.337,0,0.61-0.272,0.61-0.609S14.097,318.447,13.76,318.447z
			 M13.76,308.081c-0.336,0-0.609,0.273-0.609,0.61s0.273,0.609,0.609,0.609c0.337,0,0.61-0.272,0.61-0.609
			S14.097,308.081,13.76,308.081z M13.76,297.715c-0.336,0-0.609,0.272-0.609,0.609s0.273,0.609,0.609,0.609
			c0.337,0,0.61-0.272,0.61-0.609S14.097,297.715,13.76,297.715z M13.76,287.349c-0.336,0-0.609,0.272-0.609,0.609
			s0.273,0.61,0.609,0.61c0.337,0,0.61-0.273,0.61-0.61S14.097,287.349,13.76,287.349z M13.76,276.983
			c-0.336,0-0.609,0.272-0.609,0.609s0.273,0.61,0.609,0.61c0.337,0,0.61-0.273,0.61-0.61S14.097,276.983,13.76,276.983z"/>
		<path fill="#FFFFFF" d="M563.967,34.796c0.337,0,0.609-0.273,0.609-0.61c0-0.337-0.272-0.61-0.609-0.61s-0.61,0.273-0.61,0.61
			C563.356,34.522,563.63,34.796,563.967,34.796z M552.99,34.186c0-0.337,0.273-0.61,0.61-0.61s0.609,0.273,0.609,0.61
			c0,0.336-0.272,0.61-0.609,0.61S552.99,34.522,552.99,34.186z M542.625,34.186c0-0.337,0.272-0.61,0.609-0.61
			s0.609,0.273,0.609,0.61c0,0.336-0.272,0.61-0.609,0.61S542.625,34.522,542.625,34.186z M532.259,34.186
			c0-0.337,0.272-0.61,0.609-0.61s0.609,0.273,0.609,0.61c0,0.336-0.272,0.61-0.609,0.61S532.259,34.522,532.259,34.186z
			 M521.893,34.186c0-0.337,0.272-0.61,0.609-0.61s0.61,0.273,0.61,0.61c0,0.336-0.273,0.61-0.61,0.61
			S521.893,34.522,521.893,34.186z M511.526,34.186c0-0.337,0.272-0.61,0.609-0.61s0.61,0.273,0.61,0.61
			c0,0.336-0.273,0.61-0.61,0.61S511.526,34.522,511.526,34.186z M501.16,34.186c0-0.337,0.273-0.61,0.609-0.61
			c0.337,0,0.61,0.273,0.61,0.61c0,0.336-0.273,0.61-0.61,0.61C501.434,34.796,501.16,34.522,501.16,34.186z M490.794,34.186
			c0-0.337,0.273-0.61,0.61-0.61c0.336,0,0.609,0.273,0.609,0.61c0,0.336-0.273,0.61-0.609,0.61
			C491.067,34.796,490.794,34.522,490.794,34.186z M563.356,24.225c0-0.337,0.273-0.61,0.61-0.61s0.609,0.273,0.609,0.61
			s-0.272,0.61-0.609,0.61S563.356,24.562,563.356,24.225z M552.99,24.225c0-0.337,0.273-0.61,0.61-0.61s0.609,0.273,0.609,0.61
			s-0.272,0.61-0.609,0.61S552.99,24.562,552.99,24.225z M542.625,24.225c0-0.337,0.272-0.61,0.609-0.61s0.609,0.273,0.609,0.61
			s-0.272,0.61-0.609,0.61S542.625,24.562,542.625,24.225z M532.259,24.225c0-0.337,0.272-0.61,0.609-0.61s0.609,0.273,0.609,0.61
			s-0.272,0.61-0.609,0.61S532.259,24.562,532.259,24.225z M521.893,24.225c0-0.337,0.272-0.61,0.609-0.61s0.61,0.273,0.61,0.61
			s-0.273,0.61-0.61,0.61S521.893,24.562,521.893,24.225z M511.526,24.225c0-0.337,0.272-0.61,0.609-0.61s0.61,0.273,0.61,0.61
			s-0.273,0.61-0.61,0.61S511.526,24.562,511.526,24.225z M501.16,24.225c0-0.337,0.273-0.61,0.609-0.61
			c0.337,0,0.61,0.273,0.61,0.61s-0.273,0.61-0.61,0.61C501.434,24.835,501.16,24.562,501.16,24.225z M490.794,24.225
			c0-0.337,0.273-0.61,0.61-0.61c0.336,0,0.609,0.273,0.609,0.61s-0.273,0.61-0.609,0.61
			C491.067,24.835,490.794,24.562,490.794,24.225z M480.428,24.225c0-0.337,0.273-0.61,0.61-0.61s0.609,0.273,0.609,0.61
			s-0.272,0.61-0.609,0.61S480.428,24.562,480.428,24.225z M563.356,14.264c0-0.337,0.273-0.61,0.61-0.61s0.609,0.273,0.609,0.61
			c0,0.336-0.272,0.609-0.609,0.609S563.356,14.601,563.356,14.264z M552.99,14.264c0-0.337,0.273-0.61,0.61-0.61
			s0.609,0.273,0.609,0.61c0,0.336-0.272,0.609-0.609,0.609S552.99,14.601,552.99,14.264z M542.625,14.264
			c0-0.337,0.272-0.61,0.609-0.61s0.609,0.273,0.609,0.61c0,0.336-0.272,0.609-0.609,0.609S542.625,14.601,542.625,14.264z
			 M532.259,14.264c0-0.337,0.272-0.61,0.609-0.61s0.609,0.273,0.609,0.61c0,0.336-0.272,0.609-0.609,0.609
			S532.259,14.601,532.259,14.264z M521.893,14.264c0-0.337,0.272-0.61,0.609-0.61s0.61,0.273,0.61,0.61
			c0,0.336-0.273,0.609-0.61,0.609S521.893,14.601,521.893,14.264z M511.526,14.264c0-0.337,0.272-0.61,0.609-0.61
			s0.61,0.273,0.61,0.61c0,0.336-0.273,0.609-0.61,0.609S511.526,14.601,511.526,14.264z M501.16,14.264
			c0-0.337,0.273-0.61,0.609-0.61c0.337,0,0.61,0.273,0.61,0.61c0,0.336-0.273,0.609-0.61,0.609
			C501.434,14.874,501.16,14.601,501.16,14.264z M490.794,14.264c0-0.337,0.273-0.61,0.61-0.61c0.336,0,0.609,0.273,0.609,0.61
			c0,0.336-0.273,0.609-0.609,0.609C491.067,14.874,490.794,14.601,490.794,14.264z M480.428,14.264c0-0.337,0.273-0.61,0.61-0.61
			s0.609,0.273,0.609,0.61c0,0.336-0.272,0.609-0.609,0.609S480.428,14.601,480.428,14.264z M470.062,14.264
			c0-0.337,0.273-0.61,0.61-0.61s0.609,0.273,0.609,0.61c0,0.336-0.272,0.609-0.609,0.609S470.062,14.601,470.062,14.264z"/>
	</g>
	<path opacity="0.2" fill="#E476FF" d="M464.947,232.836c-1.828,0-1.824-2.836,0-2.836C466.775,230,466.772,232.836,464.947,232.836
		z M439.096,120.413c-1.84,0-1.843,2.859,0,2.859C440.936,123.272,440.938,120.413,439.096,120.413z M323.635,14.277
		c-1.191,0-1.193,1.852,0,1.852C324.826,16.128,324.828,14.277,323.635,14.277z M156.799,39.617c-1.267,0-1.269,1.969,0,1.969
		C158.066,41.586,158.068,39.617,156.799,39.617z M59.686,19.755c-1.191,0-1.193,1.852,0,1.852
		C60.877,21.607,60.879,19.755,59.686,19.755z M24.327,130.543c-1.538,0-1.541,2.391,0,2.391
		C25.865,132.934,25.868,130.543,24.327,130.543z M106.5,98.94c-1.191,0-1.193,1.852,0,1.852
		C107.691,100.792,107.693,98.94,106.5,98.94z M154.418,177.88c-0.001,0-0.002,0.001-0.004,0.002
		c-0.294-0.072-0.571-0.046-0.926,0.036c-0.713,0.166-1.027,1.046-0.672,1.653c0.38,0.65,1.224,0.698,1.767,0.228
		c0.245-0.212,0.408-0.391,0.501-0.652c0.019-0.011,0.038-0.021,0.056-0.032C155.956,178.651,155.24,177.508,154.418,177.88z
		 M99.029,217.556c-1.719,0-1.722,2.672,0,2.672C100.749,220.228,100.751,217.556,99.029,217.556z M32.295,295.27
		c-1.689,0-1.692,2.625,0,2.625C33.984,297.895,33.987,295.27,32.295,295.27z M115.081,342.8c-0.353-0.354-0.852-0.295-1.21,0
		c-0.152,0.125-0.324,0.194-0.504,0.232c-0.661-0.699-1.971-0.351-2.093,0.675c-0.136,1.144,1.132,1.73,1.993,1.088
		c0.679-0.065,1.285-0.327,1.814-0.785C115.43,343.708,115.392,343.111,115.081,342.8z M436.685,362.25
		c-0.332-0.014-0.664-0.029-0.996-0.035c-1.417-0.025-1.42,2.229,0,2.203c0.332-0.006,0.664-0.022,0.996-0.035
		C438.057,364.329,438.059,362.305,436.685,362.25z M520.228,304.191c-0.289-0.099-0.562-0.159-0.872-0.156
		c-0.79,0.01-1.549,0.688-1.512,1.512c0.037,0.827,0.664,1.502,1.512,1.512c0.311,0.004,0.583-0.057,0.872-0.155
		C521.56,306.448,521.562,304.646,520.228,304.191z M486.697,38.609c-0.146-1.55-2.268-1.553-2.414,0l-0.047,0.499
		c-0.063,0.675,0.622,1.254,1.254,1.254c0.629,0,1.318-0.576,1.254-1.254L486.697,38.609z M535.394,82.068
		c0.098-1.351-1.683-2.425-2.739-1.274c-1.028,1.121-0.099,2.9,1.292,2.745C534.85,83.795,535.665,82.973,535.394,82.068z
		 M532.217,186.022c-1.899,0-1.903,2.953,0,2.953C534.117,188.976,534.12,186.022,532.217,186.022z"/>
	<g opacity="0.4">
		<g>
			<path opacity="0.8" fill="#FFFFFF" d="M450.947,312.154c0.358-1.732,1.727-3.101,3.459-3.459v0.894
				c-1.255,0.328-2.237,1.311-2.565,2.565H450.947z M456.211,309.589c1.255,0.327,2.237,1.31,2.565,2.564h0.894
				c-0.358-1.732-1.727-3.101-3.459-3.458V309.589z M454.406,316.524c-1.255-0.327-2.237-1.311-2.565-2.565h-0.894
				c0.358,1.733,1.727,3.101,3.459,3.459V316.524z M458.776,313.958c-0.328,1.255-1.311,2.237-2.565,2.565v0.894
				c1.732-0.358,3.101-1.727,3.459-3.459H458.776z"/>
		</g>
		<g>
			<path opacity="0.8" fill="#FFFFFF" d="M86.326,77.031c0.358-1.733,1.726-3.101,3.458-3.458v0.894
				c-1.255,0.327-2.238,1.31-2.565,2.565H86.326z M91.589,74.466c1.255,0.328,2.238,1.31,2.565,2.565h0.894
				c-0.358-1.733-1.726-3.101-3.458-3.458V74.466z M89.785,81.401c-1.255-0.328-2.238-1.311-2.565-2.565h-0.893
				c0.358,1.733,1.726,3.101,3.458,3.459V81.401z M94.154,78.836c-0.328,1.255-1.31,2.238-2.565,2.565v0.894
				c1.733-0.358,3.101-1.726,3.458-3.458H94.154z"/>
		</g>
		<g>
			<path opacity="0.8" fill="#FFFFFF" d="M496.799,93.542c0.358-1.733,1.727-3.101,3.459-3.459v0.894
				c-1.255,0.328-2.237,1.311-2.565,2.565H496.799z M502.063,90.977c1.255,0.328,2.238,1.311,2.565,2.565h0.894
				c-0.358-1.733-1.727-3.101-3.459-3.459V90.977z M500.258,97.912c-1.255-0.328-2.237-1.31-2.565-2.565h-0.894
				c0.358,1.733,1.727,3.101,3.459,3.459V97.912z M504.628,95.347c-0.328,1.255-1.311,2.238-2.565,2.565v0.894
				c1.732-0.358,3.101-1.726,3.459-3.459H504.628z"/>
		</g>
		<g>
			<path opacity="0.8" fill="#FFFFFF" d="M142.91,291.417c0.358-1.733,1.726-3.101,3.458-3.459v0.894
				c-1.255,0.327-2.238,1.311-2.565,2.565H142.91z M148.173,288.852c1.255,0.327,2.238,1.311,2.565,2.565h0.894
				c-0.358-1.732-1.726-3.101-3.458-3.459V288.852z M146.368,295.787c-1.255-0.327-2.238-1.31-2.565-2.564h-0.893
				c0.358,1.732,1.726,3.101,3.458,3.458V295.787z M150.738,293.222c-0.328,1.255-1.31,2.237-2.565,2.564v0.894
				c1.732-0.357,3.101-1.726,3.458-3.458H150.738z"/>
		</g>
	</g>
</g>
</svg>
