<?xml version="1.0" encoding="utf-8"?>
<!-- Generator: Adobe Illustrator 16.0.0, SVG Export Plug-In . SVG Version: 6.00 Build 0)  -->
<!DOCTYPE svg PUBLIC "-//W3C//DTD SVG 1.1//EN" "http://www.w3.org/Graphics/SVG/1.1/DTD/svg11.dtd">
<svg version="1.1" id="Layer_1" xmlns="http://www.w3.org/2000/svg" xmlns:xlink="http://www.w3.org/1999/xlink" x="0px" y="0px"
	 width="275.497px" height="51.839px" viewBox="0 0 275.497 51.839" enable-background="new 0 0 275.497 51.839"
	 xml:space="preserve">
<g>
	<g>
		<g>
			<path fill="#FFFFFF" d="M18.376,42.447c-0.331,0-0.664-0.238-0.664-0.568V16.354h-6.014c-0.378,0-0.711-0.282-0.711-0.663v-5.587
				c0-0.379,0.333-0.711,0.711-0.711h18.94c0.38,0,0.711,0.332,0.711,0.711v5.587c0,0.381-0.331,0.663-0.711,0.663h-6.013v25.525
				c0,0.33-0.332,0.568-0.663,0.568H18.376z"/>
			<path fill="#FFFFFF" d="M35.329,42.447c-0.377,0-0.662-0.283-0.662-0.662V10.058c0-0.381,0.285-0.665,0.662-0.665h17.237
				c0.333,0,0.664,0.284,0.664,0.665v5.633c0,0.381-0.331,0.663-0.664,0.663H41.628v6.061h8.38c0.381,0,0.664,0.286,0.664,0.665
				v5.635c0,0.379-0.283,0.66-0.664,0.66h-8.38v6.111h10.938c0.333,0,0.664,0.283,0.664,0.662v5.637
				c0,0.379-0.331,0.662-0.664,0.662H35.329z"/>
			<path fill="#FFFFFF" d="M74.444,41.927c-0.426,0.424-0.9,0.52-1.277,0.52H60.948c-0.331,0-0.805-0.096-1.232-0.52l-2.65-2.654
				c-0.473-0.473-0.473-0.9-0.473-1.23V13.798c0-0.144,0-0.758,0.473-1.231l2.65-2.652c0.522-0.521,0.854-0.521,1.232-0.521h12.265
				c0.426,0,0.806,0.095,1.231,0.521l2.652,2.652c0.426,0.426,0.521,0.757,0.521,1.231v5.066c0,0.332-0.331,0.663-0.662,0.663
				h-5.637c-0.38,0-0.662-0.331-0.662-0.663v-1.231c0-0.144-0.047-0.237-0.142-0.332l-0.807-0.805
				c-0.094-0.095-0.236-0.143-0.331-0.143h-4.592c-0.095,0-0.238,0.048-0.333,0.143l-0.757,0.805
				c-0.142,0.188-0.189,0.236-0.189,0.426v16.716c0,0.143,0.048,0.285,0.189,0.379l0.662,0.664h5.495l0.662-0.664
				c0.095-0.094,0.142-0.236,0.142-0.332v-1.42c0-0.33,0.282-0.664,0.662-0.664h5.637c0.331,0,0.662,0.334,0.662,0.664v5.352
				c0,0.238-0.047,0.379-0.521,0.852L74.444,41.927z"/>
			<path fill="#FFFFFF" d="M96.467,42.447c-0.332,0-0.664-0.283-0.664-0.662v-12.41h-7.104v12.41c0,0.379-0.331,0.662-0.662,0.662
				h-5.635c-0.378,0-0.664-0.283-0.664-0.662V10.058c0-0.381,0.286-0.665,0.664-0.665h5.635c0.331,0,0.662,0.284,0.662,0.665v12.356
				h7.104V10.058c0-0.381,0.332-0.665,0.664-0.665h5.634c0.379,0,0.663,0.284,0.663,0.665v31.727c0,0.379-0.284,0.662-0.663,0.662
				H96.467z"/>
		</g>
		<g>
			<path fill="#FFFFFF" d="M120.78,42.447c-0.381,0-0.664-0.283-0.664-0.662V10.058c0-0.381,0.283-0.665,0.664-0.665h5.634
				c0.378,0,0.662,0.284,0.662,0.665v31.727c0,0.379-0.284,0.662-0.662,0.662H120.78z"/>
			<path fill="#FFFFFF" d="M145.592,42.447c-0.38,0-0.711-0.33-0.853-0.662l-5.777-15.865v15.865c0,0.332-0.332,0.662-0.664,0.662
				h-5.635c-0.378,0-0.664-0.33-0.664-0.662V10.058c0-0.381,0.286-0.665,0.664-0.665h6.914c0.333,0,0.567,0.237,0.71,0.665
				l6.251,18.184l0.236,0.52V10.058c0-0.381,0.332-0.665,0.664-0.665h5.634c0.38,0,0.664,0.284,0.664,0.665v31.727
				c0,0.332-0.284,0.662-0.664,0.662H145.592z"/>
			<path fill="#FFFFFF" d="M176.186,41.927c-0.333,0.33-0.9,0.52-1.231,0.52h-12.267c-0.519,0-0.852-0.145-1.23-0.52l-2.652-2.654
				c-0.329-0.332-0.521-0.9-0.521-1.326v-4.592c0-0.379,0.331-0.664,0.712-0.664h5.585c0.381,0,0.664,0.285,0.664,0.664v2.131h5.968
				c0.095,0,0.142-0.049,0.236-0.143l0.805-0.758c0.095-0.096,0.144-0.189,0.144-0.332v-3.6c0-0.189-0.049-0.33-0.238-0.473
				l-0.71-0.662c-0.095-0.096-0.142-0.145-0.236-0.145h-8.525c-0.519,0-0.852-0.139-1.23-0.52l-2.652-2.65
				c-0.282-0.285-0.521-0.663-0.521-1.231V13.798c0-0.475,0.191-0.9,0.521-1.231l2.652-2.652c0.522-0.521,0.854-0.521,1.23-0.521
				h12.267c0.473,0,0.804,0.095,1.231,0.521l2.65,2.652c0.331,0.331,0.522,0.804,0.522,1.278v4.876c0,0.381-0.333,0.664-0.711,0.664
				h-5.588c-0.38,0-0.662-0.283-0.662-0.664v-2.367h-5.873c-0.142,0-0.236,0.048-0.331,0.143l-0.757,0.757
				c-0.144,0.143-0.191,0.236-0.191,0.38v3.788c0,0.142,0.097,0.237,0.191,0.33l0.662,0.663h8.855c0.662,0,0.804,0.097,1.231,0.523
				l2.65,2.65c0.522,0.57,0.522,0.804,0.522,1.232v11.223c0,0.33-0.095,0.805-0.522,1.23L176.186,41.927z"/>
			<path fill="#FFFFFF" d="M184.614,42.447c-0.378,0-0.662-0.283-0.662-0.662V10.058c0-0.381,0.284-0.665,0.662-0.665h5.635
				c0.381,0,0.664,0.284,0.664,0.665v31.727c0,0.379-0.283,0.662-0.664,0.662H184.614z"/>
			<path fill="#FFFFFF" d="M212.792,41.927c-0.381,0.375-0.757,0.52-1.232,0.52h-15.059c-0.377,0-0.662-0.283-0.662-0.662V10.058
				c0-0.381,0.285-0.665,0.662-0.665h15.059c0.381,0,0.805,0.095,1.232,0.521l2.65,2.652c0.428,0.426,0.522,0.898,0.522,1.231
				v24.245c0,0.33,0,0.711-0.522,1.23L212.792,41.927z M208.861,34.822c0.095-0.143,0.143-0.236,0.143-0.332V17.633
				c0-0.096,0-0.189-0.143-0.332l-0.806-0.805c-0.095-0.143-0.236-0.143-0.331-0.143H202.8v19.132h5.398L208.861,34.822z"/>
			<path fill="#FFFFFF" d="M221.317,42.447c-0.38,0-0.664-0.283-0.664-0.662V10.058c0-0.381,0.284-0.665,0.664-0.665h17.237
				c0.329,0,0.662,0.284,0.662,0.665v5.633c0,0.381-0.333,0.663-0.662,0.663h-10.94v6.061h8.382c0.379,0,0.662,0.286,0.662,0.665
				v5.635c0,0.379-0.283,0.66-0.662,0.66h-8.382v6.111h10.94c0.329,0,0.662,0.283,0.662,0.662v5.637
				c0,0.379-0.333,0.662-0.662,0.662H221.317z"/>
			<path fill="#FFFFFF" d="M257.449,42.447c-0.381,0-0.712-0.33-0.854-0.662l-4.64-11.555h-2.178v11.555
				c0,0.332-0.285,0.662-0.664,0.662h-5.635c-0.331,0-0.664-0.33-0.664-0.662V10.058c0-0.381,0.333-0.665,0.664-0.665h15.06
				c0.424,0,0.898,0.144,1.229,0.475l2.7,2.699c0.567,0.567,0.475,0.945,0.475,1.325v11.934c0,0.614-0.097,0.852-0.475,1.231
				l-2.842,2.795l4.83,11.934c0.142,0.332,0,0.662-0.475,0.662H257.449z M255.839,22.414c0.095-0.094,0.142-0.234,0.142-0.378v-4.31
				c0-0.237,0-0.331-0.142-0.474l-0.712-0.71c-0.188-0.189-0.376-0.189-0.614-0.189h-4.734v6.961h4.973c0.095,0,0.188,0,0.329-0.141
				L255.839,22.414z"/>
		</g>
	</g>
	<path fill="#FFFFFF" d="M272.424,3.073v45.692H3.075V3.073H272.424 M275.497,0H0v51.839h275.497V0L275.497,0z"/>
</g>
</svg>
