<?xml version="1.0" encoding="utf-8"?>
<!-- Generator: Adobe Illustrator 16.0.0, SVG Export Plug-In . SVG Version: 6.00 Build 0)  -->
<!DOCTYPE svg PUBLIC "-//W3C//DTD SVG 1.1//EN" "http://www.w3.org/Graphics/SVG/1.1/DTD/svg11.dtd">
<svg version="1.1" id="Layer_1" xmlns="http://www.w3.org/2000/svg" xmlns:xlink="http://www.w3.org/1999/xlink" x="0px" y="0px"
	 width="64.687px" height="64.686px" viewBox="0 0 64.687 64.686" enable-background="new 0 0 64.687 64.686" xml:space="preserve">
<g>
	<g>
		<linearGradient id="SVGID_1_" gradientUnits="userSpaceOnUse" x1="9.4741" y1="9.4731" x2="55.2137" y2="55.2127">
			<stop  offset="0" style="stop-color:#007AB5"/>
			<stop  offset="1" style="stop-color:#0046BB"/>
		</linearGradient>
		<circle fill="url(#SVGID_1_)" cx="32.343" cy="32.344" r="32.343"/>
	</g>
</g>
<path fill="#FFFFFF" d="M47.771,14.268H16.917c-3.952,0-7.167,3.215-7.167,7.166v21.818c0,3.951,3.215,7.166,7.167,7.166h30.854
	c3.951,0,7.166-3.215,7.166-7.166V21.434C54.937,17.483,51.722,14.268,47.771,14.268z M47.475,18.141l-15.132,11.75l-15.134-11.75
	H47.475z M51.063,43.252c0,1.814-1.477,3.293-3.293,3.293H16.917c-1.816,0-3.294-1.479-3.294-3.293V21.434
	c0-0.362,0.073-0.704,0.183-1.031l17.349,13.47c0.351,0.271,0.769,0.406,1.188,0.406c0.419,0,0.838-0.135,1.188-0.406l17.352-13.471
	c0.109,0.326,0.182,0.669,0.182,1.032V43.252L51.063,43.252z"/>
</svg>
