<?xml version="1.0" encoding="utf-8"?>
<!-- Generator: Adobe Illustrator 16.0.0, SVG Export Plug-In . SVG Version: 6.00 Build 0)  -->
<!DOCTYPE svg PUBLIC "-//W3C//DTD SVG 1.1//EN" "http://www.w3.org/Graphics/SVG/1.1/DTD/svg11.dtd">
<svg version="1.1" id="Layer_1" xmlns="http://www.w3.org/2000/svg" xmlns:xlink="http://www.w3.org/1999/xlink" x="0px" y="0px"
	 width="90.42px" height="15.083px" viewBox="0 0 90.42 15.083" enable-background="new 0 0 90.42 15.083" xml:space="preserve">
<g>
	<g>
		<path fill="#7A08C9" d="M7.619,1.593c0,0,1.088-1.593,2.993-1.593c0.894,0,1.516,0,2.293,0s2.204,0.803,2.204,2.54
			c0,1.736,0,5.26,0,7.178s-2.669,5.364-5.676,5.364c-3.005,0-4.846,0-6.038,0C2.203,15.083,0,14.434,0,12.284
			c0-2.151,0-7.904,0-8.966c0-1.063,0.985-3.188,2.798-3.188c1.426,0,1.66,0,2.229,0C5.597,0.129,6.556,0.337,7.619,1.593z"/>
		<path fill="#FFC400" d="M6.841,11.321c-0.394,0-0.789-0.15-1.091-0.447L3.107,8.269C2.495,7.666,2.488,6.682,3.09,6.07
			c0.604-0.612,1.588-0.619,2.199-0.017l1.565,1.542l3.259-3.134c0.619-0.596,1.603-0.576,2.198,0.042
			c0.596,0.62,0.577,1.604-0.042,2.199l-4.35,4.183C7.618,11.176,7.23,11.321,6.841,11.321z"/>
		<path fill="#9F30ED" d="M10.156,0.193c0,2.693-1.069,5.137-2.811,6.928c-0.094,0.1-0.193,0.193-0.293,0.28
			C6.985,7.47,6.917,7.525,6.847,7.587L5.287,6.052C4.677,5.448,3.694,5.46,3.091,6.07C2.488,6.68,2.494,7.669,3.109,8.265
			l1.064,1.052c-1.214,0.535-2.557,0.826-3.969,0.826c-0.068,0-0.136,0-0.205-0.006V3.315c0-1.058,0.982-3.184,2.798-3.184h2.227
			c0.572,0,1.53,0.205,2.593,1.461c0,0,0.915-1.337,2.531-1.555C10.156,0.087,10.156,0.143,10.156,0.193z"/>
		<path fill="#FF8B00" d="M6.847,7.587C6.45,7.942,6.033,8.265,5.585,8.558C5.473,8.632,5.362,8.702,5.243,8.769
			C5.137,8.837,5.025,8.9,4.914,8.962C4.67,9.086,4.429,9.211,4.174,9.317L3.109,8.265C2.494,7.669,2.488,6.68,3.091,6.07
			c0.603-0.61,1.585-0.622,2.195-0.019L6.847,7.587z"/>
	</g>
	<g>
		<path fill="#666666" d="M23.278,12.145V5.008h-2.549V3.555h6.826v1.453h-2.543v7.137H23.278z"/>
		<path fill="#666666" d="M31.375,10.165l1.641,0.275c-0.211,0.602-0.544,1.059-0.999,1.373s-1.024,0.473-1.708,0.473
			c-1.082,0-1.883-0.354-2.402-1.061c-0.41-0.566-0.615-1.281-0.615-2.145c0-1.031,0.27-1.839,0.809-2.423s1.221-0.876,2.045-0.876
			c0.926,0,1.656,0.306,2.191,0.917s0.791,1.548,0.768,2.81h-4.125c0.012,0.488,0.145,0.867,0.398,1.139s0.57,0.408,0.949,0.408
			c0.258,0,0.475-0.07,0.65-0.211S31.286,10.477,31.375,10.165z M31.469,8.5c-0.012-0.477-0.135-0.839-0.369-1.087
			s-0.52-0.372-0.855-0.372c-0.359,0-0.656,0.131-0.891,0.393s-0.35,0.617-0.346,1.066H31.469z"/>
		<path fill="#666666" d="M39.872,7.762l-1.623,0.293c-0.055-0.324-0.179-0.568-0.372-0.732s-0.444-0.246-0.753-0.246
			c-0.41,0-0.737,0.142-0.981,0.425s-0.366,0.757-0.366,1.421c0,0.738,0.124,1.26,0.372,1.564s0.581,0.457,0.999,0.457
			c0.313,0,0.568-0.09,0.768-0.268s0.34-0.482,0.422-0.916l1.617,0.275c-0.168,0.742-0.49,1.303-0.967,1.682
			s-1.115,0.568-1.916,0.568c-0.91,0-1.636-0.287-2.177-0.861s-0.812-1.369-0.812-2.385c0-1.027,0.271-1.827,0.814-2.399
			s1.277-0.858,2.203-0.858c0.758,0,1.36,0.163,1.808,0.489S39.676,7.094,39.872,7.762z"/>
		<path fill="#666666" d="M42.76,3.555v3.158c0.531-0.621,1.166-0.932,1.904-0.932c0.379,0,0.721,0.07,1.025,0.211
			s0.534,0.32,0.688,0.539s0.26,0.461,0.316,0.727s0.085,0.678,0.085,1.236v3.65h-1.646V8.858c0-0.652-0.031-1.066-0.094-1.242
			S44.867,7.3,44.708,7.197s-0.356-0.155-0.595-0.155c-0.273,0-0.518,0.066-0.732,0.199s-0.372,0.333-0.472,0.601
			c-0.1,0.267-0.149,0.663-0.149,1.187v3.117h-1.646v-8.59H42.76z"/>
		<path fill="#666666" d="M51.743,12.145v-8.59h1.734v8.59H51.743z"/>
		<path fill="#666666" d="M60.778,12.145h-1.646V8.969c0-0.672-0.035-1.106-0.105-1.304s-0.185-0.351-0.343-0.46
			s-0.349-0.164-0.571-0.164c-0.285,0-0.541,0.078-0.768,0.234s-0.382,0.363-0.466,0.621s-0.126,0.734-0.126,1.43v2.818h-1.646
			V5.922h1.529v0.914c0.543-0.703,1.227-1.055,2.051-1.055c0.363,0,0.695,0.065,0.996,0.196s0.528,0.298,0.683,0.501
			s0.262,0.434,0.322,0.691s0.091,0.627,0.091,1.107V12.145z"/>
		<path fill="#666666" d="M61.868,10.37l1.652-0.252c0.07,0.32,0.213,0.563,0.428,0.729s0.516,0.25,0.902,0.25
			c0.426,0,0.746-0.078,0.961-0.234c0.145-0.109,0.217-0.256,0.217-0.439c0-0.125-0.039-0.229-0.117-0.311
			c-0.082-0.078-0.266-0.15-0.551-0.217c-1.328-0.293-2.17-0.561-2.525-0.803c-0.492-0.336-0.738-0.803-0.738-1.4
			c0-0.539,0.213-0.992,0.639-1.359s1.086-0.551,1.98-0.551c0.852,0,1.484,0.139,1.898,0.416s0.699,0.688,0.855,1.23l-1.553,0.287
			c-0.066-0.242-0.192-0.428-0.378-0.557s-0.45-0.193-0.794-0.193c-0.434,0-0.744,0.061-0.932,0.182
			c-0.125,0.086-0.188,0.197-0.188,0.334c0,0.117,0.055,0.217,0.164,0.299c0.148,0.109,0.661,0.264,1.538,0.463
			s1.489,0.443,1.837,0.732c0.344,0.293,0.516,0.701,0.516,1.225c0,0.57-0.238,1.061-0.715,1.471s-1.182,0.615-2.115,0.615
			c-0.848,0-1.519-0.172-2.013-0.516S62.02,10.959,61.868,10.37z"/>
		<path fill="#666666" d="M69.122,5.079V3.555h1.646v1.523H69.122z M69.122,12.145V5.922h1.646v6.223H69.122z"/>
		<path fill="#666666" d="M78.163,12.145h-1.529v-0.914c-0.254,0.355-0.554,0.619-0.899,0.793s-0.694,0.262-1.046,0.262
			c-0.715,0-1.327-0.289-1.837-0.865s-0.765-1.379-0.765-2.41c0-1.055,0.248-1.856,0.744-2.405s1.123-0.823,1.881-0.823
			c0.695,0,1.297,0.289,1.805,0.867V3.555h1.646V12.145z M73.768,8.899c0,0.664,0.092,1.145,0.275,1.441
			c0.266,0.43,0.637,0.645,1.113,0.645c0.379,0,0.701-0.162,0.967-0.484s0.398-0.803,0.398-1.443c0-0.715-0.129-1.229-0.387-1.544
			s-0.588-0.472-0.99-0.472c-0.391,0-0.718,0.155-0.981,0.466S73.768,8.282,73.768,8.899z"/>
		<path fill="#666666" d="M83.389,10.165l1.641,0.275c-0.211,0.602-0.544,1.059-0.999,1.373s-1.024,0.473-1.708,0.473
			c-1.082,0-1.883-0.354-2.402-1.061c-0.41-0.566-0.615-1.281-0.615-2.145c0-1.031,0.27-1.839,0.809-2.423s1.221-0.876,2.045-0.876
			c0.926,0,1.656,0.306,2.191,0.917s0.791,1.548,0.768,2.81h-4.125c0.012,0.488,0.145,0.867,0.398,1.139s0.57,0.408,0.949,0.408
			c0.258,0,0.475-0.07,0.65-0.211S83.299,10.477,83.389,10.165z M83.483,8.5c-0.012-0.477-0.135-0.839-0.369-1.087
			s-0.52-0.372-0.855-0.372c-0.359,0-0.656,0.131-0.891,0.393s-0.35,0.617-0.346,1.066H83.483z"/>
		<path fill="#666666" d="M88.036,12.145h-1.646V5.922h1.529v0.885c0.262-0.418,0.497-0.693,0.706-0.826s0.446-0.199,0.712-0.199
			c0.375,0,0.736,0.104,1.084,0.311l-0.51,1.436c-0.277-0.18-0.535-0.27-0.773-0.27c-0.23,0-0.426,0.063-0.586,0.19
			s-0.286,0.356-0.378,0.688s-0.138,1.027-0.138,2.086V12.145z"/>
	</g>
</g>
</svg>
