<?xml version="1.0" encoding="utf-8"?>
<!-- Generator: Adobe Illustrator 16.0.0, SVG Export Plug-In . SVG Version: 6.00 Build 0)  -->
<!DOCTYPE svg PUBLIC "-//W3C//DTD SVG 1.1//EN" "http://www.w3.org/Graphics/SVG/1.1/DTD/svg11.dtd">
<svg version="1.1" id="Layer_1" xmlns="http://www.w3.org/2000/svg" xmlns:xlink="http://www.w3.org/1999/xlink" x="0px" y="0px"
	 width="64.687px" height="64.686px" viewBox="0 0 64.687 64.686" enable-background="new 0 0 64.687 64.686" xml:space="preserve">
<g>
	<linearGradient id="SVGID_1_" gradientUnits="userSpaceOnUse" x1="9.4741" y1="9.4731" x2="55.2137" y2="55.2127">
		<stop  offset="0" style="stop-color:#60FC7C"/>
		<stop  offset="1" style="stop-color:#4AB161"/>
	</linearGradient>
	<circle fill="url(#SVGID_1_)" cx="32.343" cy="32.343" r="32.343"/>
	<path fill-rule="evenodd" clip-rule="evenodd" fill="#FFFFFF" d="M41.277,34.434c-0.864-0.518-1.989-1.094-3.007-0.678
		c-0.781,0.319-1.28,1.542-1.786,2.166c-0.26,0.32-0.569,0.371-0.969,0.211c-2.932-1.168-5.178-3.126-6.796-5.823
		c-0.274-0.419-0.225-0.75,0.105-1.138c0.489-0.575,1.103-1.229,1.234-2.004c0.132-0.775-0.231-1.682-0.552-2.373
		c-0.41-0.882-0.868-2.141-1.752-2.64c-0.813-0.459-1.883-0.202-2.606,0.388c-1.249,1.018-1.853,2.611-1.834,4.192
		c0.005,0.449,0.061,0.897,0.165,1.33c0.252,1.042,0.733,2.016,1.275,2.941c0.409,0.697,0.854,1.375,1.333,2.025
		c1.568,2.131,3.519,3.982,5.778,5.365c1.129,0.691,2.344,1.298,3.604,1.714c1.411,0.466,2.67,0.952,4.194,0.663
		c1.596-0.304,3.17-1.291,3.804-2.83c0.188-0.455,0.281-0.963,0.176-1.443C43.428,35.506,42.082,34.914,41.277,34.434z"/>
	<g>
		<g>
			<path fill="#FFFFFF" d="M12.057,53.027l3.048-11.371c-1.726-3.113-2.634-6.602-2.634-10.143c0-11.577,9.419-20.996,20.996-20.996
				s20.996,9.419,20.996,20.996c0,11.577-9.419,20.997-20.996,20.997c-3.476,0-6.908-0.878-9.98-2.545L12.057,53.027z
				 M24.055,45.704l0.72,0.429c2.643,1.575,5.648,2.408,8.692,2.408c9.389,0,17.027-7.639,17.027-17.028
				s-7.639-17.027-17.027-17.027s-17.027,7.638-17.027,17.027c0,3.1,0.861,6.153,2.49,8.829l0.441,0.725l-1.701,6.349L24.055,45.704
				z"/>
		</g>
	</g>
</g>
</svg>
