<?xml version="1.0" encoding="utf-8"?>
<!-- Generator: Adobe Illustrator 16.0.0, SVG Export Plug-In . SVG Version: 6.00 Build 0)  -->
<!DOCTYPE svg PUBLIC "-//W3C//DTD SVG 1.1//EN" "http://www.w3.org/Graphics/SVG/1.1/DTD/svg11.dtd">
<svg version="1.1" id="Layer_1" xmlns="http://www.w3.org/2000/svg" xmlns:xlink="http://www.w3.org/1999/xlink" x="0px" y="0px"
	 width="39px" height="39px" viewBox="0 0 39 39" enable-background="new 0 0 39 39" xml:space="preserve">
<circle fill="#5E3E97" cx="19.5" cy="19.5" r="19.5"/>
<g>
	<path fill="#FCDCC8" d="M28.3,29.825h2.884c-0.15-0.657-0.739-1.149-1.441-1.149S28.45,29.168,28.3,29.825"/>
	<path fill="#231F20" d="M28.3,29.825h2.884c-0.15-0.657-0.739-1.149-1.441-1.149S28.45,29.168,28.3,29.825 M31.551,30.484h-3.617
		c-0.183,0-0.33-0.147-0.33-0.33c0-1.179,0.959-2.138,2.139-2.138c1.179,0,2.138,0.959,2.138,2.138
		C31.88,30.337,31.732,30.484,31.551,30.484"/>
	<path fill="#FCDCC8" d="M7.778,29.825h2.884c-0.15-0.657-0.74-1.149-1.442-1.149S7.929,29.168,7.778,29.825"/>
	<path fill="#231F20" d="M7.778,29.825h2.884c-0.15-0.657-0.74-1.149-1.442-1.149S7.929,29.168,7.778,29.825 M11.029,30.484H7.412
		c-0.182,0-0.33-0.147-0.33-0.33c0-1.179,0.959-2.138,2.138-2.138s2.138,0.959,2.138,2.138
		C11.358,30.337,11.211,30.484,11.029,30.484"/>
	<path fill="#00A69C" d="M19.603,16.1c-4.283,0-7.755,1.14-7.755,2.545h15.511C27.358,17.24,23.886,16.1,19.603,16.1"/>
	<path fill="#231F20" d="M12.278,18.316h14.65c-0.247-0.411-0.936-0.826-1.943-1.157c-1.433-0.47-3.344-0.729-5.382-0.729
		c-2.037,0-3.948,0.259-5.381,0.729C13.213,17.49,12.524,17.905,12.278,18.316 M27.688,18.976H11.518v-0.33
		c0-0.59,0.434-1.436,2.499-2.113c1.497-0.491,3.481-0.762,5.586-0.762s4.09,0.271,5.587,0.762c2.065,0.678,2.499,1.523,2.499,2.113
		V18.976z"/>
	<path fill="#FFFFFF" d="M28.06,18.646H11.146c-0.61,0-1.104,0.495-1.104,1.104v9.3c0,0.61,0.495,1.104,1.104,1.104H28.06
		c0.61,0,1.104-0.494,1.104-1.104v-9.3C29.164,19.14,28.67,18.646,28.06,18.646"/>
	<path fill="#FCDCC8" d="M22.341,16.263c-0.852-0.105-1.774-0.163-2.738-0.163c-0.964,0-1.886,0.058-2.738,0.163
		c0.144,0.789,1.314,1.403,2.738,1.403C21.026,17.666,22.197,17.052,22.341,16.263"/>
	<path fill="#231F20" d="M17.35,16.541c0.364,0.46,1.264,0.796,2.253,0.796c0.989,0,1.89-0.335,2.253-0.796
		c-0.727-0.074-1.482-0.111-2.253-0.111C18.833,16.43,18.077,16.467,17.35,16.541 M19.603,17.996c-1.598,0-2.885-0.704-3.062-1.674
		l-0.063-0.343l0.346-0.043c0.889-0.11,1.823-0.166,2.778-0.166c0.956,0,1.891,0.056,2.778,0.166l0.347,0.043l-0.063,0.343
		C22.488,17.292,21.2,17.996,19.603,17.996"/>
	<path fill="#FFFFFF" d="M25.289,10.744c0-3.141-2.546-5.686-5.687-5.686c-3.14,0-5.686,2.545-5.686,5.686
		c0,3.14,2.545,5.686,5.686,5.686C22.743,16.43,25.289,13.884,25.289,10.744"/>
	<path fill="#231F20" d="M19.603,5.387c-2.953,0-5.356,2.403-5.356,5.356s2.403,5.356,5.356,5.356c2.954,0,5.356-2.403,5.356-5.356
		S22.557,5.387,19.603,5.387 M19.603,16.759c-3.317,0-6.016-2.699-6.016-6.016c0-3.317,2.699-6.016,6.016-6.016
		c3.317,0,6.016,2.698,6.016,6.016C25.618,14.061,22.92,16.759,19.603,16.759"/>
	<path fill="#231F20" d="M17.847,11.369c0-0.228-0.185-0.413-0.413-0.413s-0.413,0.185-0.413,0.413s0.185,0.413,0.413,0.413
		S17.847,11.597,17.847,11.369"/>
	<path fill="#231F20" d="M22.036,11.369c0-0.228-0.185-0.413-0.413-0.413c-0.228,0-0.412,0.185-0.412,0.413s0.185,0.413,0.412,0.413
		C21.852,11.781,22.036,11.597,22.036,11.369"/>
	<path fill="#B2E2F9" d="M21.247,23.979c0-0.944-0.766-1.711-1.711-1.711s-1.711,0.767-1.711,1.711c0,0.945,0.766,1.711,1.711,1.711
		S21.247,24.925,21.247,23.979"/>
	<path fill="#231F20" d="M19.536,22.599c-0.762,0-1.381,0.62-1.381,1.381c0,0.762,0.62,1.381,1.381,1.381
		c0.761,0,1.381-0.619,1.381-1.381C20.917,23.219,20.297,22.599,19.536,22.599 M19.536,26.021c-1.125,0-2.041-0.916-2.041-2.041
		s0.916-2.04,2.041-2.04s2.04,0.915,2.04,2.04S20.661,26.021,19.536,26.021"/>
	<path fill="#C5D4DC" d="M28.06,18.646l-0.456,9.132c0,0.61-0.494,1.104-1.104,1.104c0,0-15.963,1.272-15.353,1.272H28.06
		c0.61,0,1.104-0.494,1.104-1.104v-9.3C29.164,19.14,28.67,18.646,28.06,18.646"/>
	<path fill="#231F20" d="M11.146,18.976c-0.427,0-0.775,0.347-0.775,0.774v9.3c0,0.428,0.348,0.775,0.775,0.775H28.06
		c0.428,0,0.775-0.348,0.775-0.775v-9.3c0-0.427-0.348-0.774-0.775-0.774H11.146z M28.06,30.484H11.146
		c-0.791,0-1.434-0.644-1.434-1.435v-9.3c0-0.791,0.644-1.434,1.434-1.434H28.06c0.791,0,1.435,0.644,1.435,1.434v9.3
		C29.494,29.841,28.851,30.484,28.06,30.484"/>
	<path fill="#FCDCC8" d="M18.586,15.413c-0.839,0-1.635-0.182-2.352-0.508c0.921,0.747,2.093,1.195,3.368,1.195
		c2.954,0,5.356-2.403,5.356-5.356c0-1.275-0.448-2.448-1.194-3.369c0.326,0.717,0.508,1.513,0.508,2.352
		C24.272,12.868,21.727,15.413,18.586,15.413"/>
	<path fill="#F8A252" d="M23.345,9.577c-2.015-0.736-3.626-1.738-5.833-2.333c-3.266-0.88-2.182,3.298-4.325,4.433
		c0.39-1.688-1.188-4.335,0.254-5.727c0.464-0.447,1.162-0.659,1.822-0.513c0.029-0.856,0.859-1.346,1.635-1.688
		c1.483-0.655,3.013,0.002,4.322,0.659c1.78,0.894,3.151,1.787,3.439-0.622C29.164,5.5,26.951,10.896,23.345,9.577"/>
	<path fill="#FFC758" d="M26.073,4.607c-0.368-0.319-0.835-0.6-1.414-0.82C24.371,6.195,23,5.302,21.22,4.408
		c-1.309-0.657-2.838-1.314-4.322-0.659c-0.776,0.342-1.606,0.832-1.635,1.688c-0.66-0.146-1.358,0.065-1.822,0.513
		c-0.857,0.827-0.647,2.098-0.418,3.348c1.053-1.606,1.286-3.641,3.999-2.91c2.207,0.595,3.297,0.874,5.312,1.61
		C24.8,8.9,26.614,6.661,26.073,4.607"/>
	<path fill="#231F20" d="M14.84,5.721c-0.437,0-0.863,0.17-1.17,0.466c-0.751,0.724-0.535,1.898-0.307,3.142
		c0.1,0.539,0.201,1.09,0.214,1.608c0.395-0.467,0.617-1.12,0.833-1.757c0.201-0.59,0.39-1.147,0.71-1.589
		c0.391-0.537,0.906-0.798,1.578-0.798c0.271,0,0.573,0.044,0.899,0.132c1.354,0.365,2.498,0.885,3.604,1.387
		c0.721,0.327,1.466,0.666,2.257,0.955c0.336,0.123,0.669,0.186,0.99,0.186c0.589,0,1.13-0.208,1.563-0.602
		c0.41-0.373,0.693-0.888,0.797-1.45c0.189-1.031-0.224-2.361-1.888-3.146c-0.118,0.586-0.428,1.412-1.35,1.412
		c-0.606,0-1.313-0.36-2.131-0.778c-0.993-0.507-2.12-1.082-3.236-1.082c-0.419,0-0.803,0.079-1.173,0.242
		c-0.978,0.431-1.421,0.862-1.439,1.398l-0.013,0.396l-0.388-0.086C15.077,5.734,14.959,5.721,14.84,5.721 M12.703,12.306
		l0.163-0.703c0.137-0.593-0.002-1.351-0.15-2.154c-0.239-1.296-0.509-2.766,0.497-3.736c0.429-0.414,1.023-0.651,1.628-0.651
		c0.048,0,0.096,0.002,0.144,0.005c0.214-0.825,1.047-1.295,1.781-1.619c0.449-0.198,0.933-0.299,1.439-0.299
		c1.275,0,2.477,0.613,3.536,1.154c0.712,0.363,1.383,0.706,1.831,0.706c0.183,0,0.609,0,0.761-1.261l0.05-0.419l0.395,0.15
		c1.024,0.39,1.809,1.002,2.269,1.771c0.409,0.685,0.555,1.491,0.412,2.271c-0.13,0.704-0.485,1.35-1.003,1.819
		c-0.557,0.505-1.25,0.772-2.006,0.772c-0.398,0-0.808-0.076-1.217-0.226c-0.814-0.297-1.571-0.641-2.303-0.974
		c-1.082-0.492-2.201-1-3.502-1.351c-0.27-0.073-0.515-0.109-0.728-0.109c-0.956,0-1.255,0.737-1.664,1.94
		c-0.326,0.959-0.695,2.045-1.694,2.575L12.703,12.306z"/>
	<path fill="#231F20" d="M34.366,30.484H4.839c-0.182,0-0.33-0.147-0.33-0.33c0-0.182,0.147-0.329,0.33-0.329h29.527
		c0.182,0,0.33,0.147,0.33,0.329C34.696,30.337,34.548,30.484,34.366,30.484"/>
	<path fill="#231F20" d="M22.692,12.237h-2.138v-1.63h2.138V12.237z M18.503,12.237h-2.138v-1.63h2.138V12.237z M25.076,10.549
		h-1.725v-0.271c0-0.182-0.147-0.33-0.33-0.33h-2.796c-0.182,0-0.33,0.147-0.33,0.33v0.271h-0.733v-0.271
		c0-0.182-0.147-0.33-0.33-0.33h-2.797c-0.182,0-0.33,0.147-0.33,0.33v0.271H14.25c-0.182,0-0.33,0.147-0.33,0.33
		s0.147,0.33,0.33,0.33h1.456v1.359c0,0.182,0.148,0.33,0.33,0.33h2.797c0.182,0,0.33-0.147,0.33-0.33v-1.359h0.733v1.359
		c0,0.182,0.147,0.33,0.33,0.33h2.796c0.183,0,0.33-0.147,0.33-0.33v-1.359h1.725c0.183,0,0.33-0.147,0.33-0.33
		S25.259,10.549,25.076,10.549"/>
	<path fill="#F8AD91" d="M29.742,28.676c-0.085,0-0.168,0.007-0.248,0.021v0.354c0,0.285-0.084,0.552-0.229,0.775h1.918
		C31.033,29.168,30.444,28.676,29.742,28.676"/>
	<path fill="#220A03" d="M29.742,28.017c-0.084,0-0.167,0.005-0.248,0.015v0.665c0.08-0.014,0.163-0.021,0.248-0.021
		c0.702,0,1.291,0.492,1.441,1.149h0.671C31.695,28.802,30.809,28.017,29.742,28.017"/>
	<path fill="#3D877B" d="M22.571,16.625c-0.362,0.81-1.542,1.371-2.969,1.371c-0.021,0-0.042,0-0.063,0v0.32h7.388
		c-0.247-0.411-0.936-0.826-1.943-1.157C24.281,16.928,23.463,16.748,22.571,16.625"/>
	<path fill="#220A03" d="M22.728,15.981l-0.063,0.341c-0.019,0.104-0.051,0.205-0.094,0.303c0.892,0.123,1.71,0.303,2.413,0.534
		c1.008,0.331,1.696,0.747,1.943,1.157h0.715c-0.155-0.55-0.748-1.224-2.453-1.784C24.469,16.295,23.634,16.11,22.728,15.981"/>
	<path fill="#D8D4E4" d="M28.043,18.976H19.54v2.964c1.124,0.002,2.037,0.916,2.037,2.04s-0.913,2.039-2.037,2.041v3.421
		c3.586-0.291,6.959-0.56,6.959-0.56c0.61,0,1.104-0.494,1.104-1.104L28.043,18.976z"/>
	<path fill="#F8AD91" d="M21.363,16.497c-0.557,0.171-1.148,0.263-1.761,0.263c-0.021,0-0.042,0-0.063,0v0.577
		c0.021,0,0.042,0,0.063,0c0.989,0,1.89-0.335,2.253-0.796C21.693,16.524,21.529,16.509,21.363,16.497"/>
	<path fill="#220A03" d="M22.593,15.962c-0.385,0.221-0.797,0.402-1.229,0.534c0.166,0.013,0.33,0.027,0.492,0.044
		c-0.363,0.46-1.264,0.796-2.253,0.796c-0.021,0-0.042,0-0.063,0v0.66c0.021,0,0.042,0,0.063,0c1.427,0,2.606-0.561,2.969-1.371
		c0.043-0.098,0.075-0.199,0.094-0.303l0.063-0.341v-0.002L22.593,15.962z"/>
	<path fill="#FDDDBC" d="M19.54,8.3v2.249h0.356v-0.271c0-0.182,0.147-0.33,0.33-0.33h2.796c0.183,0,0.33,0.147,0.33,0.33v0.271
		h0.862c0.021-0.146,0.036-0.293,0.046-0.442c-0.338-0.02-0.684-0.094-1.028-0.22c-0.814-0.297-1.571-0.641-2.303-0.974
		C20.476,8.708,20.016,8.499,19.54,8.3 M24.918,10.077L24.918,10.077c0.02,0.155,0.032,0.313,0.038,0.472
		C24.95,10.39,24.938,10.232,24.918,10.077 M22.692,10.607h-2.138v1.63h2.138V10.607z M21.623,11.781
		c-0.228,0-0.412-0.185-0.412-0.413s0.185-0.413,0.412-0.413c0.229,0,0.413,0.185,0.413,0.413S21.852,11.781,21.623,11.781
		 M24.078,11.208h-0.727v1.359c0,0.182-0.147,0.33-0.33,0.33h-2.796c-0.182,0-0.33-0.147-0.33-0.33v-1.359H19.54v4.125
		C21.737,14.963,23.507,13.331,24.078,11.208 M19.54,16.1L19.54,16.1c0.001,0,0.002,0,0.003,0C19.542,16.1,19.541,16.1,19.54,16.1
		 M19.551,16.1c0.001,0,0.001,0,0.003,0C19.553,16.1,19.552,16.1,19.551,16.1 M19.559,16.1c0.001,0,0.002,0,0.003,0
		C19.561,16.1,19.56,16.1,19.559,16.1 M19.567,16.1c0.001,0,0.002,0,0.003,0C19.569,16.1,19.568,16.1,19.567,16.1 M19.575,16.1
		h0.003H19.575 M19.583,16.1h0.003H19.583 M19.592,16.1h0.003H19.592"/>
	<path fill="#220A03" d="M25.56,9.902c-0.205,0.082-0.42,0.141-0.642,0.175c0.02,0.155,0.032,0.313,0.038,0.472h0.12
		c0.183,0,0.33,0.147,0.33,0.33s-0.147,0.33-0.33,0.33h-0.137c-0.236,2.737-2.54,4.892-5.337,4.892h-0.008h-0.003
		c-0.002,0-0.003,0-0.005,0h-0.003c-0.002,0-0.003,0-0.005,0h-0.003c-0.001,0-0.003,0-0.005,0c-0.001,0-0.002,0-0.003,0
		c-0.001,0-0.003,0-0.005,0c-0.001,0-0.002,0-0.003,0c-0.001,0-0.003,0-0.005,0s-0.002,0-0.003,0c-0.003,0-0.005,0-0.008,0
		c-0.001,0-0.002,0-0.003,0v0.659c0.021,0,0.042,0,0.063,0c0.612,0,1.204-0.092,1.761-0.263c0.433-0.132,0.845-0.313,1.229-0.534
		c1.807-1.039,3.025-2.989,3.025-5.219C25.618,10.458,25.599,10.177,25.56,9.902"/>
	<path fill="#220A03" d="M21.623,10.956c-0.228,0-0.412,0.185-0.412,0.413s0.185,0.413,0.412,0.413c0.229,0,0.413-0.185,0.413-0.413
		S21.852,10.956,21.623,10.956"/>
	<path fill="#91B9CC" d="M19.54,22.599v2.762c0.76-0.001,1.377-0.62,1.377-1.381C20.917,23.22,20.299,22.601,19.54,22.599"/>
	<path fill="#220A03" d="M19.54,21.939v0.659c0.76,0.002,1.377,0.621,1.377,1.381c0,0.761-0.618,1.38-1.377,1.381v0.66
		c1.124-0.002,2.037-0.917,2.037-2.041S20.663,21.941,19.54,21.939"/>
	<path fill="#B1B8A7" d="M28.06,18.976h-0.017l-0.439,8.802c0,0.61-0.494,1.104-1.104,1.104c0,0-3.373,0.269-6.959,0.56v0.384h8.52
		c0.428,0,0.775-0.348,0.775-0.775v-9.3C28.835,19.323,28.487,18.976,28.06,18.976"/>
	<path fill="#220A03" d="M28.06,18.316h-0.417h-0.715H19.54v0.66h8.503h0.017c0.428,0,0.775,0.347,0.775,0.774v9.3
		c0,0.428-0.348,0.775-0.775,0.775h1.206c0.145-0.224,0.229-0.49,0.229-0.775v-0.354v-0.665V19.75
		C29.494,18.959,28.851,18.316,28.06,18.316"/>
	<path fill="#F8AD91" d="M24.918,10.077c-0.153,0.023-0.311,0.035-0.47,0.035c-0.063,0-0.125-0.002-0.188-0.005
		c-0.01,0.149-0.025,0.296-0.046,0.442h0.742C24.95,10.39,24.938,10.232,24.918,10.077 M24.939,11.208h-0.861
		c-0.571,2.123-2.341,3.755-4.539,4.125V16.1c0.001,0,0.002,0,0.003,0c0.002,0,0.005,0,0.008,0c0.001,0,0.002,0,0.003,0
		c0.001,0,0.003,0,0.005,0c0.001,0,0.002,0,0.003,0c0.001,0,0.003,0,0.005,0c0.001,0,0.002,0,0.003,0c0.001,0,0.003,0,0.005,0h0.003
		c0.002,0,0.003,0,0.005,0h0.003c0.002,0,0.003,0,0.005,0h0.003h0.008C22.399,16.1,24.703,13.945,24.939,11.208"/>
	<path fill="#F58542" d="M26.163,5.158c0.102,1.554-1.051,3.045-2.727,3.045c-0.348,0-0.718-0.064-1.104-0.205
		c-1.095-0.4-1.917-0.666-2.793-0.919v0.508c0.576,0.233,1.124,0.481,1.662,0.726c0.721,0.327,1.466,0.666,2.257,0.955
		c0.336,0.123,0.669,0.186,0.99,0.186c0.589,0,1.13-0.208,1.563-0.602c0.41-0.373,0.693-0.888,0.797-1.45
		C26.937,6.704,26.789,5.869,26.163,5.158"/>
	<path fill="#F89C45" d="M19.54,4.042v3.037c0.876,0.254,1.699,0.519,2.793,0.919c0.386,0.141,0.756,0.205,1.104,0.205
		c1.676,0,2.828-1.491,2.727-3.045c-0.298-0.339-0.705-0.649-1.242-0.902c-0.118,0.586-0.428,1.412-1.35,1.412
		c-0.606,0-1.313-0.36-2.131-0.778C20.845,4.585,20.201,4.257,19.54,4.042"/>
	<path fill="#220A03" d="M24.382,3.329l-0.05,0.419c-0.151,1.261-0.578,1.261-0.761,1.261c-0.448,0-1.119-0.343-1.831-0.706
		c-0.681-0.348-1.421-0.725-2.201-0.951v0.69c0.661,0.214,1.305,0.543,1.901,0.847c0.818,0.417,1.524,0.778,2.131,0.778
		c0.922,0,1.231-0.826,1.35-1.412c0.537,0.253,0.944,0.563,1.242,0.902c0.626,0.71,0.773,1.545,0.646,2.244
		c-0.104,0.562-0.387,1.077-0.797,1.45c-0.434,0.394-0.975,0.602-1.563,0.602c-0.321,0-0.654-0.063-0.99-0.186
		c-0.791-0.289-1.536-0.627-2.257-0.955c-0.538-0.245-1.085-0.493-1.662-0.726V8.3c0.477,0.199,0.937,0.408,1.389,0.613
		c0.731,0.333,1.488,0.676,2.303,0.974c0.345,0.126,0.69,0.2,1.028,0.22c0.063,0.003,0.126,0.005,0.188,0.005
		c0.159,0,0.316-0.012,0.47-0.035l0,0c0.222-0.034,0.437-0.093,0.642-0.175c0.325-0.13,0.626-0.318,0.895-0.563
		c0.518-0.47,0.873-1.115,1.003-1.819c0.143-0.78-0.003-1.586-0.412-2.271c-0.46-0.77-1.244-1.382-2.269-1.771L24.382,3.329z"/>
	<path fill="#220A03" d="M34.366,29.825h-2.512h-0.671h-1.918H28.06h-8.52v0.659h12.011h2.815c0.182,0,0.33-0.147,0.33-0.33
		C34.696,29.973,34.548,29.825,34.366,29.825"/>
	<path fill="#220A03" d="M23.021,9.948h-2.796c-0.182,0-0.33,0.147-0.33,0.33v0.271H19.54v0.659h0.356v1.359
		c0,0.182,0.147,0.33,0.33,0.33h2.796c0.183,0,0.33-0.147,0.33-0.33v-1.359h0.727h0.861h0.137c0.183,0,0.33-0.147,0.33-0.33
		s-0.147-0.33-0.33-0.33h-0.12h-0.742h-0.862v-0.271C23.352,10.096,23.204,9.948,23.021,9.948 M20.555,10.607h2.138v1.63h-2.138
		V10.607z"/>
</g>
</svg>
